<?xml version="1.0" standalone="no"?>
<!DOCTYPE svg PUBLIC "-//W3C//DTD SVG 20010904//EN"
 "http://www.w3.org/TR/2001/REC-SVG-20010904/DTD/svg10.dtd">
<svg version="1.0" xmlns="http://www.w3.org/2000/svg"
 width="1280.000000pt" height="640.000000pt" viewBox="0 0 1280.000000 640.000000"
 preserveAspectRatio="xMidYMid meet">
<g transform="translate(0.000000,640.000000) scale(0.100000,-0.100000)"
fill="#000000" stroke="none">
<path d="M4826 4860 l-171 -169 -5 -188 -5 -188 -327 -9 c-259 -7 -331 -6
-343 4 -12 10 -15 44 -15 194 l0 181 -165 163 c-114 112 -173 162 -188 162
-15 0 -72 -50 -187 -165 l-165 -165 -5 -188 -5 -187 -350 0 -350 0 -5 192 -5
193 -165 165 c-91 91 -172 165 -180 165 -8 0 -91 -75 -183 -168 l-167 -167 0
-180 c0 -99 -4 -186 -8 -193 -7 -9 -84 -12 -353 -10 l-344 3 -5 192 -5 193
-165 165 c-91 91 -172 165 -180 165 -8 0 -92 -77 -185 -170 l-170 -170 -5
-188 -5 -187 -165 -3 c-141 -2 -167 -5 -177 -19 -18 -24 -19 -593 -1 -611 8
-8 60 -12 168 -12 85 0 161 -4 168 -8 10 -7 12 -144 10 -653 l-3 -644 -195 -8
c-108 -5 -200 -13 -207 -19 -18 -15 -19 -598 -1 -616 8 -8 66 -12 194 -12 100
0 189 -3 198 -6 14 -5 16 -28 16 -153 0 -101 4 -151 12 -159 18 -18 673 -17
685 1 4 6 10 78 11 160 l4 147 351 -2 352 -3 3 -144 c1 -86 7 -150 14 -158 8
-10 78 -13 333 -13 178 0 330 3 339 6 14 5 16 28 16 144 0 76 3 145 6 154 5
14 46 16 355 16 l349 0 5 -22 c3 -13 6 -84 8 -158 l2 -135 334 -3 c238 -2 338
1 347 9 11 9 14 45 14 148 0 75 5 143 10 151 8 13 57 15 342 15 l333 0 5 -155
5 -155 345 0 345 0 7 143 c4 79 9 150 12 158 4 12 63 14 350 14 l346 0 5 -22
c3 -13 6 -84 8 -158 l2 -135 345 0 345 0 3 146 c2 108 6 150 16 158 9 8 114
10 352 9 l339 -3 5 -145 c3 -80 9 -151 13 -158 12 -18 670 -18 685 1 7 8 13
72 14 158 l3 144 345 0 345 0 5 -155 5 -155 345 0 345 0 2 135 c2 74 5 145 8
158 l5 22 350 0 350 0 0 -134 c0 -74 4 -146 10 -160 l10 -26 339 0 c300 0 340
2 345 16 3 9 6 78 6 155 0 135 1 139 23 144 12 3 171 4 352 3 l330 -3 3 -144
c1 -86 7 -150 14 -158 16 -19 670 -19 686 0 7 8 13 72 14 158 l3 144 166 5
c120 4 171 9 183 19 14 12 16 47 16 312 0 285 -1 299 -19 309 -11 5 -87 10
-173 10 -84 0 -159 4 -166 8 -10 7 -12 144 -10 653 l3 644 167 5 c91 3 170 9
175 13 11 11 11 613 0 624 -5 4 -84 10 -175 13 l-167 5 -5 187 -5 188 -165
165 c-104 105 -172 165 -185 165 -13 0 -81 -60 -185 -165 l-165 -165 -5 -188
-5 -187 -352 -3 -353 -2 0 187 0 187 -172 173 c-95 95 -177 173 -183 173 -5 0
-88 -78 -182 -172 l-173 -173 -2 -185 -3 -185 -346 -3 -347 -2 -3 195 -4 195
-160 160 c-88 88 -168 163 -179 166 -14 5 -58 -33 -192 -167 l-174 -174 0
-175 c0 -96 -4 -181 -8 -188 -7 -10 -82 -13 -341 -13 -183 0 -336 3 -342 6 -5
4 -9 84 -9 187 l0 182 -167 168 c-104 104 -175 168 -187 168 -12 0 -83 -63
-185 -165 l-166 -164 -5 -188 -5 -188 -352 -3 -353 -2 0 187 0 187 -172 173
c-95 95 -177 173 -183 173 -6 0 -88 -78 -183 -173 l-172 -173 0 -187 0 -187
-349 0 -350 0 -3 195 -3 196 -166 164 c-91 91 -171 165 -179 165 -8 0 -91 -76
-184 -170z m4056 -1213 c4 -7 8 -296 8 -644 0 -615 -1 -633 -19 -643 -23 -12
-649 -14 -669 -2 -10 7 -12 144 -10 653 l3 644 165 5 c246 7 513 1 522 -13z
m-4234 -633 c2 -532 0 -643 -12 -653 -15 -12 -645 -19 -665 -7 -8 5 -11 189
-11 646 0 598 1 640 18 649 11 7 134 10 342 8 l325 -2 3 -641z m1410 634 c9
-9 12 -165 12 -639 0 -345 -3 -634 -6 -643 -5 -14 -46 -16 -354 -16 -308 0
-349 2 -354 16 -3 9 -6 298 -6 643 0 474 3 630 12 639 17 17 679 17 696 0z
m1417 -10 c3 -13 4 -306 3 -653 l-3 -630 -349 -3 c-273 -2 -351 1 -358 10 -12
20 -10 1255 2 1279 10 18 25 19 355 19 l345 0 5 -22z m2823 -636 l2 -652 -352
2 -353 3 -3 630 c-1 347 0 640 3 653 l5 22 348 -2 347 -3 3 -653z m1410 646
c9 -9 12 -165 12 -639 0 -345 -3 -634 -6 -643 -5 -14 -46 -16 -354 -16 -308 0
-349 2 -354 16 -3 9 -6 298 -6 643 0 474 3 630 12 639 17 17 679 17 696 0z
m-9870 -642 c1 -463 -1 -643 -9 -652 -9 -11 -77 -14 -350 -14 l-339 0 -10 26
c-11 28 -14 1223 -4 1262 l6 22 352 -2 351 -3 3 -639z m1407 -11 l0 -650 -350
0 -350 0 -3 640 c-1 352 0 646 3 653 3 10 79 12 352 10 l348 -3 0 -650z"/>
</g>
</svg>
