<?xml version="1.0" encoding="utf-8"?>
<!-- Generator: Adobe Illustrator 19.0.0, SVG Export Plug-In . SVG Version: 6.00 Build 0)  -->
<svg version="1.1" id="Layer_1" xmlns="http://www.w3.org/2000/svg" xmlns:xlink="http://www.w3.org/1999/xlink" x="0px" y="0px"
	 viewBox="131 -131 512 512" style="enable-background:new 131 -131 512 512;" xml:space="preserve" width="32" height="32" fill="red">
<g id="XMLID_2_">
	<path id="XMLID_6_" d="M530.4,167.8h-36.3c-5.6,0-11.2-1.9-14.9-6.5c-4.7-4.7-6.5-9.3-6.5-14.9v-42.8c0-5.6,1.9-11.2,6.5-14.9
		c4.7-4.7,9.3-6.5,14.9-6.5h36.3C523,58,510.9,37.5,493.2,19.8s-39.1-30.7-62.4-37.2v36.3c0,5.6-1.9,11.2-6.5,14.9
		c-4.7,4.7-9.3,6.5-14.9,6.5h-42.8c-5.6,0-11.2-1.9-14.9-6.5c-3.7-4.7-6.5-9.3-6.5-14.9v-36.3C321-10,300.5,2.1,282.8,19.8
		s-30.7,39.1-37.2,62.4h36.3c5.6,0,11.2,1.9,14.9,6.5s6.5,9.3,6.5,14.9v42.8c0,5.6-1.9,11.2-6.5,14.9c-4.7,4.7-9.3,6.5-14.9,6.5
		h-36.3c7.4,24.2,19.5,44.7,37.2,62.4s39.1,30.7,62.4,37.2v-36.3c0-5.6,1.9-11.2,6.5-14.9c4.7-4.7,9.3-6.5,14.9-6.5h42.8
		c5.6,0,11.2,1.9,14.9,6.5c4.7,4.7,6.5,9.3,6.5,14.9v36.3c24.2-7.4,44.7-19.5,62.4-37.2S522.9,192,530.4,167.8z M643,103.6v42.8
		c0,5.6-1.9,11.2-6.5,14.9c-4.7,4.7-9.3,6.5-14.9,6.5h-47.5c-8.4,35.4-25.1,67-51.2,93.1c-26.1,26.1-56.8,42.8-93.1,51.2v47.5
		c0,5.6-1.9,11.2-6.5,14.9c-4.7,4.7-9.3,6.5-14.9,6.5h-42.8c-5.6,0-11.2-1.9-14.9-6.5c-4.7-4.7-6.5-9.3-6.5-14.9v-47.5
		c-35.4-8.4-67-25.1-93.1-51.2s-42.8-56.8-51.2-93.1h-47.5c-5.6,0-11.2-1.9-14.9-6.5c-4.6-4.6-6.5-9.3-6.5-14.9v-42.8
		c0-5.6,1.9-11.2,6.5-14.9s9.3-6.5,14.9-6.5h47.5c8.4-35.4,25.1-67,51.2-93.1s56.8-42.8,93.1-51.2v-47.5c0-5.6,1.9-11.2,6.5-14.9
		s9.3-6.5,14.9-6.5h42.8c5.6,0,11.2,1.9,14.9,6.5c4.7,4.7,6.5,9.3,6.5,14.9v47.5c35.4,8.4,67,25.1,93.1,51.2
		c26.1,26.1,42.8,56.8,51.2,93.1h47.5c5.6,0,11.2,1.9,14.9,6.5C641.1,93.3,643,98,643,103.6z"/>
</g>
</svg>
