<svg xmlns="http://www.w3.org/2000/svg" width="200mm" height="200mm" viewBox="0 0 200 200"><desc/><g stroke-width=".5"><g fill="#fff" stroke="#000"><circle cx="100" cy="100" r="90"/><circle cx="100" cy="100" r="80"/><circle cx="100" cy="100" r="70"/></g><g fill="#000" stroke="#fff"><circle cx="100" cy="100" r="60"/><circle cx="100" cy="100" r="50"/><circle cx="100" cy="100" r="40"/><circle cx="100" cy="100" r="30"/><circle cx="100" cy="100" r="20"/><circle cx="100" cy="100" r="10"/></g><circle cx="100" cy="100" r="1" fill="#fff" stroke="#fff"/></g><g fill="#000" font-family="arial" font-size="7" text-anchor="middle"><text x="100" y="18">1</text><text x="100" y="28">2</text><text x="100" y="38">3</text><text x="100" y="167">3</text><text x="100" y="177">2</text><text x="100" y="187">1</text><text x="15" y="103">1</text><text x="25" y="103">2</text><text x="35" y="103">3</text><text x="165" y="103">3</text><text x="175" y="103">2</text><text x="185" y="103">1</text><g fill="#fff"><text x="100" y="48">4</text><text x="100" y="58">5</text><text x="100" y="68">6</text><text x="100" y="78">7</text><text x="100" y="88">8</text><text x="100" y="117">8</text><text x="100" y="127">7</text><text x="100" y="137">6</text><text x="100" y="147">5</text><text x="100" y="157">4</text><text x="45" y="103">4</text><text x="55" y="103">5</text><text x="65" y="103">6</text><text x="75" y="103">7</text><text x="85" y="103">8</text><text x="115" y="103">8</text><text x="125" y="103">7</text><text x="135" y="103">6</text><text x="145" y="103">5</text><text x="155" y="103">4</text></g></g></svg>